<svg width="48" height="48" viewBox="0 0 48 48" fill="none" xmlns="http://www.w3.org/2000/svg">
<g id="B592, Cinema, Time, Clock">
<g id="Group">
<path id="Vector" d="M24 1.26709C11.2792 1.26709 0.958435 11.4849 0.958435 24.079C0.958435 36.673 11.2792 46.8908 24 46.8908C36.7208 46.8908 47.0416 36.673 47.0416 24.079C47.0416 11.4849 36.7208 1.26709 24 1.26709Z" fill="#DBDAFD"/>
<path id="Vector_2" d="M24 40.7922C33.3659 40.7922 40.9584 33.2741 40.9584 24.0001C40.9584 14.7261 33.3659 7.20801 24 7.20801C14.6341 7.20801 7.04161 14.7261 7.04161 24.0001C7.04161 33.2741 14.6341 40.7922 24 40.7922Z" fill="white"/>
<path id="Vector_3" d="M24 47.7625C17.6 47.7625 11.604 45.3071 7.04161 40.7922C2.47924 36.2774 3.05176e-05 30.3368 3.05176e-05 24.0002C3.05176e-05 17.6635 2.47924 11.7229 7.04161 7.20809C11.5961 2.69324 17.6 0.237793 24 0.237793C30.4 0.237793 36.3961 2.69324 40.9584 7.20809C45.5208 11.7229 48 17.6635 48 24.0002C48 30.3368 45.5208 36.2774 40.9584 40.7922C36.3961 45.3071 30.4 47.7625 24 47.7625ZM24 2.21799C11.8416 2.21799 1.99607 11.9606 1.99607 24.0002C1.99607 36.0398 11.8337 45.7823 23.9921 45.7823C36.1505 45.7823 45.9881 36.0398 45.9881 24.0002C45.9881 11.9606 36.1584 2.21799 24 2.21799Z" fill="#001452"/>
<path id="Vector_4" d="M24 41.8218C14.0832 41.8218 6.00397 33.8218 6.00397 24C6.00397 14.1782 14.0753 6.17822 24 6.17822C33.9247 6.17822 41.996 14.1782 41.996 24C41.996 33.8218 33.9168 41.8218 24 41.8218ZM24 8.15842C15.2 8.15842 8.00001 15.2871 8.00001 24C8.00001 32.7129 15.2 39.8416 24 39.8416C32.8 39.8416 40 32.7129 40 24C40 15.2871 32.8 8.15842 24 8.15842Z" fill="#001452"/>
<path id="Vector_5" d="M16 31.9205C15.7624 31.9205 15.5169 31.8413 15.3584 31.6829C14.9545 31.366 14.8753 30.7324 15.2792 30.2571L27.2792 16.3957C27.5961 15.9997 28.2376 15.9205 28.7208 16.3165C29.1168 16.6334 29.204 17.267 28.8 17.7423L16.8 31.6037C16.5624 31.8413 16.3169 31.9205 16 31.9205Z" fill="#001452"/>
<path id="Vector_6" d="M32.9584 27.9603C32.7208 27.9603 32.4753 27.8811 32.3169 27.7227L22.3208 18.7722C21.9248 18.3761 21.8376 17.7425 22.2416 17.3464C22.6456 16.9504 23.2792 16.8712 23.6832 17.2672L33.6792 26.2177C34.0753 26.6137 34.1624 27.2474 33.7584 27.6434C33.5208 27.8811 33.2753 27.9603 32.9584 27.9603Z" fill="#001452"/>
<path id="Vector_7" d="M24 14.099C23.4376 14.099 22.9624 13.6237 22.9624 13.0693V10.1386C22.9624 9.58413 23.4455 9.10889 24 9.10889C24.5544 9.10889 25.0376 9.58413 25.0376 10.1386V13.1485C25.0376 13.6237 24.5544 14.099 24 14.099Z" fill="#001452"/>
<path id="Vector_8" d="M24 38.8911C23.4376 38.8911 22.9624 38.4158 22.9624 37.8614V34.8515C22.9624 34.297 23.4455 33.8218 24 33.8218C24.5544 33.8218 25.0376 34.297 25.0376 34.8515V37.8614C25.0376 38.4158 24.5544 38.8911 24 38.8911Z" fill="#001452"/>
<path id="Vector_9" d="M37.996 25.0296H34.9545C34.3921 25.0296 33.9168 24.5544 33.9168 23.9999C33.9168 23.4455 34.4 22.9702 34.9545 22.9702H37.996C38.5584 22.9702 39.0337 23.4455 39.0337 23.9999C39.0337 24.5544 38.5505 25.0296 37.996 25.0296Z" fill="#001452"/>
<path id="Vector_10" d="M13.0376 25.0296H9.99606C9.43368 25.0296 8.95844 24.5544 8.95844 23.9999C8.95844 23.4455 9.4416 22.9702 9.99606 22.9702H13.0376C13.6 22.9702 14.0753 23.4455 14.0753 23.9999C13.9961 24.5544 13.5129 25.0296 13.0376 25.0296Z" fill="#001452"/>
</g>
</g>
</svg>
