<svg width="48" height="48" viewBox="0 0 48 48" fill="none" xmlns="http://www.w3.org/2000/svg">
<g id="E - 289, Destination, road, route">
<path id="Vector" d="M41.486 35.069C38.0536 35.069 35.2619 37.7026 35.0167 41.0558H16.4947C12.3427 41.0558 8.98947 37.7026 8.98947 33.5505C8.98947 29.3985 12.4218 26.0453 16.4947 26.0453H33.4983C38.6863 26.0453 42.9965 21.8142 42.9965 16.547C42.9965 11.2799 38.7654 7.04879 33.4983 7.04879H18.6538L24.6406 1.78166C25.036 1.38623 25.123 0.824719 24.7197 0.342294C24.3243 -0.0531366 23.7628 -0.140131 23.2803 0.263208C14.9763 7.52331 15.3005 7.28605 15.2215 7.36514C14.9051 7.76057 14.9051 8.32208 15.3005 8.72542C15.3796 8.80451 21.6037 14.2298 23.3594 15.7483C23.7548 16.1437 24.3954 16.0646 24.7988 15.6692C25.1942 15.2737 25.1151 14.6332 24.7197 14.2298L18.7329 8.96268H33.4983C37.6503 8.96268 41.0035 12.3159 41.0035 16.4679C41.0035 20.62 37.6503 23.9732 33.4983 23.9732H16.4947C11.3067 23.9732 6.99651 28.2043 6.99651 33.4715C6.99651 38.7386 11.2276 42.9697 16.4947 42.9697H35.0958C35.7364 45.8405 38.37 47.9996 41.399 47.9996C44.9895 47.9996 47.8603 45.1287 47.8603 41.5303C47.8603 37.9319 45.0686 35.0611 41.478 35.0611L41.486 35.069Z" fill="#DBDAFD"/>
<path id="Vector_2" d="M41.486 35.069C38.0536 35.069 35.2619 37.7026 35.0167 41.0558H16.4947C12.3427 41.0558 8.98947 37.7026 8.98947 33.5505C8.98947 29.3985 12.4218 26.0453 16.4947 26.0453H33.4983C38.6863 26.0453 42.9965 21.8142 42.9965 16.547C42.9965 11.2799 38.7654 7.04879 33.4983 7.04879H18.6538L24.6406 1.78166C25.036 1.38623 25.123 0.824719 24.7197 0.342294C24.3243 -0.0531366 23.7628 -0.140131 23.2803 0.263208C14.9763 7.52331 15.3005 7.28605 15.2215 7.36514C14.9051 7.76057 14.9051 8.32208 15.3005 8.72542C15.3796 8.80451 21.6037 14.2298 23.3594 15.7483C23.7549 16.1437 24.3954 16.0646 24.7988 15.6692C25.1942 15.2737 25.1151 14.6332 24.7197 14.2298L18.7329 8.96268H33.4983C37.6503 8.96268 41.0035 12.3159 41.0035 16.4679C41.0035 20.62 37.6503 23.9732 33.4983 23.9732H16.4947C11.3067 23.9732 6.99651 28.2043 6.99651 33.4715C6.99651 38.7386 11.2276 42.9697 16.4947 42.9697H35.0958C35.7364 45.8405 38.37 47.9996 41.399 47.9996C44.9895 47.9996 47.8603 45.1287 47.8603 41.5303C47.8603 37.9319 45.0686 35.0611 41.478 35.0611L41.486 35.069ZM41.486 46.0066C39.0106 46.0066 37.0176 44.0136 37.0176 41.5382C37.0176 39.0628 39.0106 37.0699 41.486 37.0699C43.9613 37.0699 45.9543 39.0628 45.9543 41.5382C45.9543 44.0136 43.9613 46.0066 41.486 46.0066Z" fill="#001452"/>
<path id="Vector_3" d="M13.0703 8.56739C13.0703 4.97688 10.1995 2.09814 6.60107 2.09814C3.00266 2.09814 0.13974 4.97688 0.13974 8.56739C0.13974 12.1579 3.01057 15.0366 6.60898 15.0366C10.1204 15.1157 13.0782 12.1658 13.0782 8.56739H13.0703Z" fill="#DBDAFD"/>
<path id="Vector_4" d="M13.0703 8.56739C13.0703 4.97688 10.1995 2.09814 6.60107 2.09814C3.00266 2.09814 0.13974 4.97688 0.13974 8.56739C0.13974 12.1579 3.01057 15.0366 6.60898 15.0366C10.1204 15.1157 13.0782 12.1658 13.0782 8.56739H13.0703ZM6.52199 13.1148C4.04659 13.1148 2.05362 11.1219 2.05362 8.64647C2.05362 6.17108 4.04659 4.17811 6.52199 4.17811C8.99738 4.17811 10.9904 6.17108 10.9904 8.64647C10.9904 11.1219 8.99738 13.1148 6.52199 13.1148Z" fill="#001452"/>
</g>
</svg>
