<svg width="60" height="60" viewBox="0 0 60 60" fill="none" xmlns="http://www.w3.org/2000/svg">
<rect width="60" height="60" rx="8" fill="#F3F6FF"/>
<path d="M17.2445 36V34.398C19.4045 33.012 23.9945 29.97 23.9945 27.126C23.9945 25.812 23.0765 24.948 21.7265 24.948C20.3405 24.948 19.2425 25.83 18.9185 27.576L17.1545 27.126C17.5325 24.642 19.3145 23.202 21.7625 23.202C24.2105 23.202 25.9205 24.732 25.9205 26.982C25.9205 29.934 22.4105 32.76 20.1065 34.308H26.2625V36H17.2445ZM27.3126 37.998L30.2286 23.04H32.0106L29.0766 37.998H27.3126ZM42.8175 26.19L41.0535 26.658C40.6215 25.506 39.7395 24.912 38.5335 24.912C35.9775 24.912 35.2215 27.486 35.2215 29.61C36.0135 28.404 37.4535 27.81 38.8755 27.81C41.1255 27.81 43.1955 29.25 43.1955 31.878C43.1955 34.434 41.2695 36.18 38.3895 36.18C35.1855 36.18 33.3675 33.966 33.3675 29.916C33.3675 25.722 35.2755 23.22 38.5155 23.22C40.6395 23.22 42.2055 24.318 42.8175 26.19ZM35.4015 31.878C35.7975 33.57 36.8055 34.452 38.3715 34.452C40.1175 34.452 41.3055 33.372 41.3055 31.824C41.3055 30.348 40.2255 29.412 38.6415 29.412C37.1835 29.412 35.4015 30.222 35.4015 31.878Z" fill="#001452"/>
</svg>
