<svg width="48" height="48" viewBox="0 0 48 48" fill="none" xmlns="http://www.w3.org/2000/svg">
<g id="Group">
<path id="Vector" d="M24 47.99C10.7452 47.99 0 37.2548 0 24C0 10.7452 10.7452 0 24 0C37.2548 0 48 10.7452 48 24C48 37.2548 37.2548 48 24 48V47.99Z" fill="#DBDAFD"/>
<path id="Vector_2" d="M24 47.99C10.7452 47.99 0 37.2548 0 24C0 10.7452 10.7452 0 24 0C37.2548 0 48 10.7452 48 24C48 37.2548 37.2548 48 24 48V47.99ZM24 2.31037C12.0498 2.31037 2.31037 12.0498 2.31037 24C2.31037 35.9502 12.0498 45.6896 24 45.6896C35.9502 45.6896 45.6896 35.9502 45.6896 24C45.6896 12.0498 35.9403 2.31037 24 2.31037Z" fill="#001452"/>
<path id="Vector_3" d="M21.2618 35.5404C21.0505 35.3292 20.9097 35.0475 20.9026 34.7588L20.9026 27.0974L13.2412 27.0974C12.6779 27.0974 12.1075 26.527 12.1075 25.9637L12.1075 21.8513C12.1075 21.5696 12.2484 21.288 12.4667 21.0697C12.6849 20.8514 12.9666 20.7105 13.2483 20.7105L20.9097 20.7105L20.9097 13.0491C20.9097 12.7675 21.0505 12.4858 21.2688 12.2675C21.4871 12.0492 21.7688 11.9084 22.0504 11.9084L26.1628 11.9084C26.7262 11.9084 27.2965 12.4788 27.2965 13.0421L27.2965 20.7035L34.9579 20.7035C35.5213 20.7035 36.0916 21.2739 36.0916 21.8372L36.0916 25.9496C36.0916 26.2312 35.9508 26.5129 35.7325 26.7312C35.5142 26.9495 35.2396 27.0833 34.9509 27.0903L27.2895 27.0903L27.2895 34.7517C27.2895 35.3151 26.7191 35.8855 26.1558 35.8855L22.0434 35.8855C21.7617 35.8855 21.4801 35.7446 21.2618 35.5263L21.2618 35.5404Z" fill="white"/>
<path id="Vector_4" d="M21.2618 35.5404C21.0505 35.3292 20.9097 35.0475 20.9026 34.7588L20.9026 27.0974L13.2412 27.0974C12.6779 27.0974 12.1075 26.527 12.1075 25.9637L12.1075 21.8513C12.1075 21.5696 12.2484 21.288 12.4667 21.0697C12.6849 20.8514 12.9666 20.7105 13.2483 20.7105L20.9097 20.7105L20.9097 13.0491C20.9097 12.7675 21.0505 12.4858 21.2688 12.2675C21.4871 12.0492 21.7688 11.9084 22.0504 11.9084L26.1628 11.9084C26.7262 11.9084 27.2965 12.4788 27.2965 13.0421L27.2965 20.7035H34.9579C35.5213 20.7035 36.0916 21.2739 36.0916 21.8372L36.0916 25.9496C36.0916 26.2312 35.9508 26.5129 35.7325 26.7312C35.5142 26.9495 35.2396 27.0833 34.9509 27.0903L27.2895 27.0903V34.7517C27.2895 35.3151 26.7191 35.8855 26.1558 35.8855L22.0434 35.8855C21.7617 35.8855 21.4801 35.7446 21.2618 35.5263V35.5404ZM22.8955 25.1046C23.1067 25.3158 23.2546 25.6045 23.2546 25.8862L23.2546 33.5476L25.0995 33.5476L25.0995 25.8862C25.0995 25.3229 25.6699 24.7525 26.2332 24.7525L33.8946 24.7525V22.9076L26.2262 22.9146C25.9445 22.9146 25.6629 22.7738 25.4446 22.5555C25.2263 22.3372 25.0925 22.0625 25.0854 21.7738L25.0925 14.1054L23.2475 14.1054L23.2475 21.7668C23.2475 22.0485 23.1067 22.3301 22.8884 22.5484C22.6701 22.7667 22.3955 22.9005 22.1068 22.9076L14.4454 22.9076L14.4454 24.7525L22.1068 24.7525C22.3884 24.7525 22.6701 24.8933 22.8884 25.1116L22.8955 25.1046Z" fill="#001452"/>
</g>
</svg>
