<svg width="30" height="52" viewBox="0 0 30 52" fill="none" xmlns="http://www.w3.org/2000/svg">
<g id="B581, Mobile, Play, Video">
<g id="Group">
<path id="Vector" d="M1.18213 41.9165V46.7293C1.18213 48.7558 2.45711 50.3601 3.99383 50.3601H26.0822C27.6189 50.3601 28.8939 48.7558 28.8939 46.7293V41.9165H1.18213Z" fill="#DBDAFD"/>
<path id="Vector_2" d="M26.0822 1.80908H3.91784C2.38112 1.80908 1.10614 3.41336 1.10614 5.43981V10.2526H28.8179V5.43981C28.9023 3.41336 27.6274 1.80908 26.0906 1.80908H26.0822Z" fill="#DBDAFD"/>
<path id="Vector_3" d="M28.8939 10.2529H1.18213V41.9163H28.8939V10.2529Z" fill="white"/>
<path id="Vector_4" d="M23.7011 26.0423L9.28795 34.2326V17.8521L23.7011 26.0423Z" fill="#DBDAFD"/>
<path id="Vector_5" d="M14.9958 3.92041C16.1863 3.92041 17.132 4.8492 17.132 6.0313C17.132 7.2134 16.1948 8.14219 14.9958 8.14219C13.7968 8.14219 12.868 7.12896 12.868 6.0313C12.868 4.8492 13.8052 3.92041 14.9958 3.92041Z" fill="#001452"/>
<path id="Vector_6" d="M14.9958 44.0273C16.1863 44.0273 17.132 44.9561 17.132 46.1382C17.132 47.3203 16.1948 48.2491 14.9958 48.2491C13.7968 48.2491 12.868 47.2359 12.868 46.1382C12.868 44.9561 13.8052 44.0273 14.9958 44.0273Z" fill="#001452"/>
<path id="Vector_7" d="M28.9023 11.2663C28.3028 11.2663 27.7962 10.7597 27.7962 10.1687V5.35583C27.7962 3.92043 27.0279 2.73833 26.0906 2.73833H3.91784C2.98061 2.73833 2.21224 3.92043 2.21224 5.35583V10.1687C2.21224 10.7597 1.69719 11.2663 1.10614 11.2663C0.515088 11.2663 3.12147e-05 10.7597 3.12147e-05 10.1687V5.35583C-0.00841234 2.73833 1.69719 0.627441 3.82496 0.627441H25.9133C28.0411 0.627441 29.7467 2.73833 29.7467 5.35583V10.1687C29.9156 10.7597 29.4089 11.2663 28.8939 11.2663H28.9023Z" fill="#001452"/>
<path id="Vector_8" d="M26.0822 51.3728H3.91785C1.79007 51.3728 0.0844727 49.2619 0.0844727 46.6444V41.8315C0.0844727 41.2405 0.59953 40.7339 1.10614 40.7339C1.61276 40.7339 2.21225 41.2405 2.21225 41.8315V46.6444C2.21225 48.0798 2.98061 49.2619 3.91785 49.2619H26.0062C26.9434 49.2619 27.7118 48.0798 27.7118 46.6444V41.8315C27.7118 41.2405 28.2269 40.7339 28.8179 40.7339C29.4089 40.7339 29.924 41.2405 29.924 41.8315V46.6444C29.924 49.2619 28.2184 51.3728 26.0906 51.3728H26.0822Z" fill="#001452"/>
<path id="Vector_9" d="M28.9023 42.9295H1.18213C0.582633 42.9295 0.0760193 42.4229 0.0760193 41.8318V10.2529C0.0760193 9.66189 0.591076 9.15527 1.18213 9.15527H28.8939C29.4934 9.15527 30 9.66189 30 10.2529V41.9163C29.9156 42.4229 29.4005 42.9295 28.8939 42.9295H28.9023ZM2.21224 40.8186H27.7962V11.2662H2.21224V40.8186Z" fill="#001452"/>
<path id="Vector_10" d="M9.28794 35.3305C9.11907 35.3305 8.9502 35.2461 8.77288 35.1616C8.43514 34.9927 8.25783 34.655 8.25783 34.2328V17.8523C8.25783 17.5146 8.4267 17.0924 8.77288 16.9235C9.11063 16.7547 9.54125 16.7547 9.87899 16.9235L24.2077 25.1138C24.5455 25.2827 24.7228 25.6204 24.7228 26.0426C24.7228 26.3803 24.5539 26.8025 24.2077 26.9714L9.87899 35.1616C9.71012 35.2461 9.54125 35.3305 9.2795 35.3305H9.28794ZM10.394 19.6255V32.3752L21.5649 25.9581L10.394 19.6255Z" fill="#001452"/>
</g>
</g>
</svg>
