<svg width="60" height="60" viewBox="0 0 60 60" fill="none" xmlns="http://www.w3.org/2000/svg">
<rect width="60" height="60" rx="8" fill="#F3F6FF"/>
<path d="M17 39C17 39.5523 17.4477 40 18 40C18.5523 40 19 39.5523 19 39L17 39ZM18.7071 20.2929C18.3166 19.9024 17.6834 19.9024 17.2929 20.2929L10.9289 26.6569C10.5384 27.0474 10.5384 27.6805 10.9289 28.0711C11.3195 28.4616 11.9526 28.4616 12.3431 28.0711L18 22.4142L23.6569 28.0711C24.0474 28.4616 24.6805 28.4616 25.0711 28.0711C25.4616 27.6805 25.4616 27.0474 25.0711 26.6569L18.7071 20.2929ZM19 39L19 21L17 21L17 39L19 39Z" fill="#001452"/>
<path d="M43 21C43 20.4477 42.5523 20 42 20C41.4477 20 41 20.4477 41 21H43ZM41.2929 39.7071C41.6834 40.0976 42.3166 40.0976 42.7071 39.7071L49.0711 33.3431C49.4616 32.9526 49.4616 32.3195 49.0711 31.9289C48.6805 31.5384 48.0474 31.5384 47.6569 31.9289L42 37.5858L36.3431 31.9289C35.9526 31.5384 35.3195 31.5384 34.9289 31.9289C34.5384 32.3195 34.5384 32.9526 34.9289 33.3431L41.2929 39.7071ZM41 21V39H43V21H41Z" fill="#001452"/>
</svg>
